<svg width="242" height="81" viewBox="0 0 242 81" fill="none" xmlns="http://www.w3.org/2000/svg">
<rect width="241.39" height="80.1453" fill="black"/>
<g filter="url(#filter0_f_1241_965)">
<circle cx="45.3239" cy="39.5978" r="17.6286" fill="white"/>
</g>
<g filter="url(#filter1_f_1241_965)">
<circle cx="45.3239" cy="39.5978" r="17.6286" fill="white"/>
</g>
<g filter="url(#filter2_f_1241_965)">
<circle cx="45.3239" cy="39.5978" r="17.6286" fill="white"/>
</g>
<g filter="url(#filter3_f_1241_965)">
<circle cx="45.3239" cy="39.5978" r="17.6286" fill="white"/>
</g>
<circle cx="45.3228" cy="39.5982" r="18.608" fill="black"/>
<path d="M98.7849 51.3875C97.3805 51.3875 96.1185 51.1433 94.999 50.6548C93.8999 50.1459 93.0348 49.4539 92.4038 48.5786C91.7728 47.6831 91.4472 46.6552 91.4268 45.495H94.3884C94.4902 46.4923 94.8972 47.337 95.6096 48.0291C96.3424 48.7008 97.4008 49.0366 98.7849 49.0366C100.108 49.0366 101.146 48.7109 101.899 48.0596C102.673 47.3879 103.059 46.533 103.059 45.495C103.059 44.6808 102.835 44.0193 102.388 43.5104C101.94 43.0015 101.38 42.6148 100.708 42.3502C100.037 42.0856 99.131 41.8006 97.9911 41.4953C96.5867 41.1289 95.457 40.7626 94.6021 40.3962C93.7676 40.0298 93.045 39.4599 92.4344 38.6864C91.8441 37.8926 91.5489 36.8342 91.5489 35.5111C91.5489 34.3509 91.8441 33.323 92.4344 32.4274C93.0246 31.5319 93.849 30.8398 94.9074 30.3513C95.9862 29.8628 97.2176 29.6185 98.6017 29.6185C100.596 29.6185 102.225 30.1172 103.487 31.1146C104.769 32.112 105.492 33.435 105.655 35.0837H102.601C102.5 34.2695 102.072 33.5571 101.319 32.9465C100.566 32.3155 99.5686 32 98.327 32C97.1668 32 96.2203 32.3053 95.4875 32.916C94.7548 33.5062 94.3884 34.3408 94.3884 35.4195C94.3884 36.193 94.6021 36.824 95.0295 37.3125C95.4773 37.801 96.0167 38.1776 96.6477 38.4422C97.2991 38.6864 98.2048 38.9714 99.365 39.2971C100.769 39.6838 101.899 40.0705 102.754 40.4572C103.609 40.8236 104.342 41.4037 104.952 42.1975C105.563 42.971 105.868 44.0294 105.868 45.3728C105.868 46.4109 105.593 47.3879 105.044 48.3039C104.494 49.2198 103.68 49.9627 102.601 50.5327C101.523 51.1026 100.25 51.3875 98.7849 51.3875ZM125.223 42.167C125.223 42.6962 125.192 43.256 125.131 43.8463H111.758C111.86 45.495 112.42 46.7875 113.437 47.7238C114.476 48.6397 115.727 49.0977 117.193 49.0977C118.394 49.0977 119.391 48.8229 120.185 48.2733C120.999 47.7034 121.569 46.9503 121.895 46.014H124.887C124.439 47.622 123.543 48.9348 122.2 49.9526C120.857 50.9499 119.188 51.4486 117.193 51.4486C115.605 51.4486 114.18 51.0924 112.918 50.38C111.677 49.6676 110.7 48.6601 109.987 47.3574C109.275 46.0343 108.919 44.5078 108.919 42.7776C108.919 41.0475 109.265 39.5311 109.957 38.2284C110.649 36.9258 111.616 35.9284 112.857 35.2364C114.119 34.5239 115.564 34.1677 117.193 34.1677C118.78 34.1677 120.185 34.5138 121.406 35.2058C122.627 35.8979 123.564 36.8545 124.215 38.0758C124.887 39.2767 125.223 40.6404 125.223 42.167ZM122.353 41.5869C122.353 40.5285 122.119 39.6227 121.65 38.8696C121.182 38.0961 120.541 37.516 119.727 37.1293C118.933 36.7222 118.048 36.5187 117.071 36.5187C115.666 36.5187 114.465 36.9665 113.468 37.8621C112.491 38.7577 111.931 39.9993 111.789 41.5869H122.353ZM137.042 34.1372C139.077 34.1372 140.726 34.758 141.988 35.9996C143.25 37.2209 143.881 38.9917 143.881 41.3121V51.1738H141.133V41.709C141.133 40.04 140.716 38.7678 139.881 37.8926C139.047 36.997 137.907 36.5492 136.462 36.5492C134.996 36.5492 133.826 37.0072 132.951 37.9231C132.096 38.8391 131.668 40.1723 131.668 41.9228V51.1738H128.89V34.4425H131.668V36.824C132.218 35.9691 132.961 35.3076 133.897 34.8394C134.854 34.3713 135.902 34.1372 137.042 34.1372ZM151.808 36.7324V46.5941C151.808 47.4083 151.981 47.9884 152.328 48.3344C152.674 48.6601 153.274 48.8229 154.129 48.8229H156.174V51.1738H153.671C152.124 51.1738 150.964 50.8176 150.19 50.1052C149.417 49.3928 149.03 48.2224 149.03 46.5941V36.7324H146.862V34.4425H149.03V30.2292H151.808V34.4425H156.174V36.7324H151.808ZM160.976 31.7252C160.447 31.7252 159.999 31.542 159.632 31.1757C159.266 30.8093 159.083 30.3615 159.083 29.8323C159.083 29.3031 159.266 28.8553 159.632 28.4889C159.999 28.1225 160.447 27.9393 160.976 27.9393C161.485 27.9393 161.912 28.1225 162.258 28.4889C162.625 28.8553 162.808 29.3031 162.808 29.8323C162.808 30.3615 162.625 30.8093 162.258 31.1757C161.912 31.542 161.485 31.7252 160.976 31.7252ZM162.319 34.4425V51.1738H159.541V34.4425H162.319ZM182.32 42.167C182.32 42.6962 182.29 43.256 182.229 43.8463H168.856C168.958 45.495 169.517 46.7875 170.535 47.7238C171.573 48.6397 172.825 49.0977 174.29 49.0977C175.491 49.0977 176.489 48.8229 177.283 48.2733C178.097 47.7034 178.667 46.9503 178.992 46.014H181.984C181.537 47.622 180.641 48.9348 179.298 49.9526C177.954 50.9499 176.285 51.4486 174.29 51.4486C172.703 51.4486 171.278 51.0924 170.016 50.38C168.774 49.6676 167.797 48.6601 167.085 47.3574C166.373 46.0343 166.016 44.5078 166.016 42.7776C166.016 41.0475 166.362 39.5311 167.054 38.2284C167.747 36.9258 168.713 35.9284 169.955 35.2364C171.217 34.5239 172.662 34.1677 174.29 34.1677C175.878 34.1677 177.283 34.5138 178.504 35.2058C179.725 35.8979 180.661 36.8545 181.313 38.0758C181.984 39.2767 182.32 40.6404 182.32 42.167ZM179.45 41.5869C179.45 40.5285 179.216 39.6227 178.748 38.8696C178.28 38.0961 177.639 37.516 176.825 37.1293C176.031 36.7222 175.145 36.5187 174.168 36.5187C172.764 36.5187 171.563 36.9665 170.566 37.8621C169.589 38.7577 169.029 39.9993 168.886 41.5869H179.45ZM194.14 34.1372C196.175 34.1372 197.824 34.758 199.086 35.9996C200.348 37.2209 200.979 38.9917 200.979 41.3121V51.1738H198.231V41.709C198.231 40.04 197.813 38.7678 196.979 37.8926C196.144 36.997 195.005 36.5492 193.559 36.5492C192.094 36.5492 190.924 37.0072 190.048 37.9231C189.193 38.8391 188.766 40.1723 188.766 41.9228V51.1738H185.988V34.4425H188.766V36.824C189.316 35.9691 190.058 35.3076 190.995 34.8394C191.951 34.3713 193 34.1372 194.14 34.1372ZM208.906 36.7324V46.5941C208.906 47.4083 209.079 47.9884 209.425 48.3344C209.771 48.6601 210.372 48.8229 211.226 48.8229H213.272V51.1738H210.768C209.222 51.1738 208.061 50.8176 207.288 50.1052C206.514 49.3928 206.128 48.2224 206.128 46.5941V36.7324H203.96V34.4425H206.128V30.2292H208.906V34.4425H213.272V36.7324H208.906Z" fill="white"/>
<defs>
<filter id="filter0_f_1241_965" x="13.9842" y="8.25811" width="62.6796" height="62.6796" filterUnits="userSpaceOnUse" color-interpolation-filters="sRGB">
<feFlood flood-opacity="0" result="BackgroundImageFix"/>
<feBlend mode="normal" in="SourceGraphic" in2="BackgroundImageFix" result="shape"/>
<feGaussianBlur stdDeviation="6.85557" result="effect1_foregroundBlur_1241_965"/>
</filter>
<filter id="filter1_f_1241_965" x="13.9842" y="8.25811" width="62.6796" height="62.6796" filterUnits="userSpaceOnUse" color-interpolation-filters="sRGB">
<feFlood flood-opacity="0" result="BackgroundImageFix"/>
<feBlend mode="normal" in="SourceGraphic" in2="BackgroundImageFix" result="shape"/>
<feGaussianBlur stdDeviation="6.85557" result="effect1_foregroundBlur_1241_965"/>
</filter>
<filter id="filter2_f_1241_965" x="13.9842" y="8.25811" width="62.6796" height="62.6796" filterUnits="userSpaceOnUse" color-interpolation-filters="sRGB">
<feFlood flood-opacity="0" result="BackgroundImageFix"/>
<feBlend mode="normal" in="SourceGraphic" in2="BackgroundImageFix" result="shape"/>
<feGaussianBlur stdDeviation="6.85557" result="effect1_foregroundBlur_1241_965"/>
</filter>
<filter id="filter3_f_1241_965" x="13.9842" y="8.25811" width="62.6796" height="62.6796" filterUnits="userSpaceOnUse" color-interpolation-filters="sRGB">
<feFlood flood-opacity="0" result="BackgroundImageFix"/>
<feBlend mode="normal" in="SourceGraphic" in2="BackgroundImageFix" result="shape"/>
<feGaussianBlur stdDeviation="6.85557" result="effect1_foregroundBlur_1241_965"/>
</filter>
</defs>
</svg>
